<svg xmlns="http://www.w3.org/2000/svg" viewBox="0 0 640 260" role="img" aria-label="Pineapple field illustration">
  <defs>
    <linearGradient id="sky" x1="0" x2="1" y1="0" y2="1">
      <stop offset="0" stop-color="#e9f6dd"/>
      <stop offset="1" stop-color="#f6d86b"/>
    </linearGradient>
    <linearGradient id="soil" x1="0" x2="0" y1="0" y2="1">
      <stop offset="0" stop-color="#8a6b3e"/>
      <stop offset="1" stop-color="#5a4128"/>
    </linearGradient>
    <linearGradient id="fruit" x1="0" x2="1" y1="0" y2="1">
      <stop offset="0" stop-color="#f7c948"/>
      <stop offset="0.55" stop-color="#d89722"/>
      <stop offset="1" stop-color="#8f5a1c"/>
    </linearGradient>
    <linearGradient id="leaf" x1="0" x2="1" y1="0" y2="1">
      <stop offset="0" stop-color="#83b84c"/>
      <stop offset="1" stop-color="#1f6f43"/>
    </linearGradient>
  </defs>

  <rect width="640" height="260" fill="url(#sky)"/>
  <path d="M0 128 C96 104 162 122 239 112 C340 99 446 105 640 78 L640 260 L0 260 Z" fill="#4f8a43"/>
  <path d="M0 168 C116 138 210 158 304 140 C420 118 520 124 640 106 L640 260 L0 260 Z" fill="#2f6d3e"/>
  <path d="M0 204 C114 177 205 192 306 176 C432 155 526 162 640 143 L640 260 L0 260 Z" fill="url(#soil)"/>

  <g opacity="0.52" fill="none" stroke="#d2b66a" stroke-width="7">
    <path d="M-22 252 C95 212 198 205 334 190 C466 176 558 156 666 123"/>
    <path d="M-10 228 C103 195 226 184 355 168 C470 154 550 140 654 106"/>
    <path d="M-14 205 C100 177 219 165 349 147 C466 132 548 116 651 83"/>
  </g>

  <g transform="translate(394 28)">
    <path d="M70 62 C50 47 34 30 24 6 C52 21 69 33 82 52 C85 31 92 12 108 0 C111 25 108 45 97 63 C116 47 137 36 168 32 C149 56 130 68 102 75 C126 73 146 78 166 93 C138 99 117 98 96 86 C106 105 110 126 105 153 C84 133 75 113 76 90 C65 113 50 131 25 145 C29 117 39 98 60 82 C37 87 17 84 0 73 C24 61 47 58 70 62 Z" fill="url(#leaf)"/>
    <ellipse cx="83" cy="154" rx="52" ry="70" fill="url(#fruit)"/>
    <path d="M43 118 L121 190 M37 148 L100 213 M70 93 L129 150 M42 181 L75 220 M101 91 L132 121" stroke="#7a491a" stroke-width="5" opacity="0.55"/>
    <path d="M124 118 L45 190 M130 149 L68 214 M93 93 L34 150 M121 181 L88 221 M62 91 L31 121" stroke="#7a491a" stroke-width="5" opacity="0.55"/>
    <ellipse cx="83" cy="154" rx="52" ry="70" fill="none" stroke="#5f421f" stroke-width="6" opacity="0.45"/>
  </g>

  <g transform="translate(56 70)" fill="#e8f4d3" opacity="0.88">
    <path d="M47 32 C31 23 17 14 9 0 C31 8 45 18 55 31 C57 15 63 4 75 0 C77 17 73 29 64 40 C79 31 95 26 116 27 C101 42 85 48 66 48 C82 55 94 66 101 82 C80 77 65 67 56 52 C50 69 38 82 20 92 C23 72 31 58 45 49 C28 50 13 45 0 35 C18 28 34 27 47 32 Z"/>
  </g>
</svg>
